<svg xmlns="http://www.w3.org/2000/svg" version="1.1" xmlns:xlink="http://www.w3.org/1999/xlink" xmlns:svgjs="http://svgjs.dev/svgjs" width="207" height="207"><svg version="1.1" xmlns="http://www.w3.org/2000/svg" xmlns:xlink="http://www.w3.org/1999/xlink" width="207" height="207" viewBox="0,0,207,207"><g transform="translate(-136.5,-76.5)"><g stroke="#000000" stroke-miterlimit="10"><path d="M343.5,249c0,18.975 -15.525,34.5 -34.5,34.5h-138c-18.975,0 -34.5,-15.525 -34.5,-34.5v-138c0,-18.975 15.525,-34.5 34.5,-34.5h138c18.975,0 34.5,15.525 34.5,34.5z" fill="#f2f2f2" stroke-width="0" stroke-linecap="butt" stroke-linejoin="miter"></path><g fill="#000000" stroke-width="3" stroke-linecap="round" stroke-linejoin="round"><path d="M180.83357,116.79397c0,0 0.87667,0.18795 2.63001,0.56386c1.75334,0.37591 4.25387,0.6736 7.50159,0.89304c3.24771,0.21944 6.87894,0.39983 10.89368,0.54118c4.01474,0.14134 8.34807,0.21284 13.00001,0.21454c4.65193,0.0017 9.61188,-0.08117 14.87985,-0.24858c5.26797,-0.16743 10.49203,-0.33751 15.67215,-0.51025c5.18014,-0.17274 10.06285,-0.34866 14.64818,-0.52774c4.58533,-0.17909 8.79578,-0.31574 12.63135,-0.40998c3.83557,-0.09424 7.01637,-0.16584 9.54237,-0.21478c2.526,-0.04894 5.2936,-0.10466 8.3028,-0.16719c3.0092,-0.06253 4.51383,-0.09381 4.51392,-0.09389c1.12781,-0.02011 2.06003,0.87467 2.08615,2.00237c0.02612,1.1277 -0.86366,2.06467 -1.9912,2.0968c0,0 -1.50446,0.0384 -4.51334,0.11521c-3.0089,0.0768 -5.77268,0.14928 -8.29134,0.21744c-2.51867,0.06816 -5.68475,0.16245 -9.49826,0.28286c-3.81351,0.12041 -8.01566,0.28868 -12.60646,0.50481c-4.5908,0.21613 -9.47526,0.43581 -14.65338,0.65904c-5.17814,0.22323 -10.42252,0.45355 -15.73317,0.691c-5.31065,0.23743 -10.31584,0.40211 -15.01555,0.49405c-4.69971,0.09194 -9.07956,0.13002 -13.13952,0.11427c-4.05996,-0.01575 -7.82079,-0.05855 -11.28247,-0.12841c-3.46168,-0.06984 -6.08644,-0.18251 -7.87428,-0.33797c-1.78784,-0.15547 -2.68166,-0.23322 -2.68142,-0.2333c-1.79999,-0.27017 -3.04017,-1.94837 -2.77,-3.74836c0.27017,-1.79999 1.94837,-3.04017 3.74836,-2.77z"></path><path d="M236.64701,128.66022c0,0 -0.01169,1.10917 -0.03509,3.32748c-0.02338,2.21833 0.03412,4.66421 0.17252,7.33764c0.1384,2.67343 0.36912,5.75647 0.69216,9.24909c0.32304,3.49264 0.69968,7.3462 1.12993,11.5607c0.43025,4.21451 0.80307,8.41032 1.11846,12.58746c0.31539,4.17714 0.68737,8.54109 1.11592,13.09182c0.42854,4.55073 0.80188,8.82522 1.11997,12.82343c0.31809,3.99821 0.6923,7.5494 1.12263,10.65354c0.43033,3.10414 0.80854,6.09605 1.13467,8.97572c0.32612,2.87967 0.57763,5.46407 0.75456,7.75317c0.17691,2.28911 0.3127,4.3235 0.40733,6.10316c0.09463,1.77966 0.199,3.72124 0.31308,5.82469c0.11408,2.10347 0.17109,3.15517 0.17101,3.15509c0.05238,1.10943 -0.79924,2.05373 -1.90816,2.11581c-1.10892,0.0621 -2.06063,-0.78123 -2.13243,-1.88956c0,0 -0.06075,-1.05151 -0.18224,-3.1545c-0.12149,-2.10301 -0.23361,-4.02762 -0.33635,-5.77387c-0.10274,-1.74625 -0.24717,-3.73859 -0.43325,-5.97707c-0.1861,-2.23846 -0.44967,-4.77864 -0.79068,-7.62048c-0.34101,-2.84186 -0.74457,-5.85385 -1.21062,-9.03594c-0.46607,-3.1821 -0.87548,-6.75945 -1.22823,-10.73204c-0.35275,-3.97259 -0.76964,-8.24383 -1.25069,-12.81371c-0.48105,-4.56988 -0.91136,-8.91735 -1.29098,-13.04238c-0.37962,-4.12503 -0.8314,-8.29177 -1.35535,-12.50017c-0.52395,-4.2084 -1.01291,-8.07621 -1.46685,-11.60343c-0.45395,-3.52722 -0.8373,-6.66323 -1.15007,-9.40807c-0.31276,-2.74484 -0.56887,-5.222 -0.76833,-7.43153c-0.19946,-2.20953 -0.29915,-3.31433 -0.29907,-3.31441c-0.07226,-1.81873 1.34353,-3.35167 3.16226,-3.42394c1.81873,-0.07226 3.35167,1.34353 3.42394,3.16226z"></path><path d="M216.25773,177.17331c0,0 0.98585,-0.22393 2.95757,-0.67177c1.9717,-0.44785 3.94047,-0.79482 5.90632,-1.04089c1.96585,-0.24607 3.97391,-0.42743 6.02419,-0.54407c2.05029,-0.11662 4.11797,-0.20101 6.20308,-0.2531c2.0851,-0.05211 3.95643,-0.09757 5.61397,-0.1364c1.65755,-0.03883 3.06897,-0.10019 4.23429,-0.1841c1.16532,-0.08391 2.44074,-0.15206 3.82628,-0.20447c1.38554,-0.05241 2.07827,-0.07858 2.07819,-0.0785c1.37867,-0.03006 2.52064,1.0632 2.5507,2.44187c0.03006,1.37867 -1.0632,2.52064 -2.44187,2.5507c0,0 -0.69322,0.00402 -2.07969,0.01204c-1.38646,0.00802 -2.65875,-0.00455 -3.8169,-0.03775c-1.15815,-0.0332 -2.5556,-0.02273 -4.19238,0.03138c-1.6368,0.05411 -3.46655,0.14079 -5.48928,0.26005c-2.02273,0.11925 -3.9925,0.27777 -5.90933,0.47552c-1.91682,0.19776 -3.74928,0.46279 -5.49737,0.79509c-1.74809,0.3323 -3.58456,0.80597 -5.50941,1.42101c-1.92486,0.61504 -2.88725,0.92259 -2.88717,0.92267c-1.58838,0.4284 -3.22395,-0.50917 -3.65693,-2.09633c-0.43298,-1.58714 0.49987,-3.2254 2.08575,-3.66296z"></path><path d="M286.79252,141.60649c0,0 -0.02408,0.70837 -0.07225,2.12508c-0.04816,1.41672 -0.11483,2.95305 -0.19996,4.60898c-0.08513,1.65593 -0.13908,3.20004 -0.16186,4.63236c-0.02278,1.43232 -0.03396,2.8038 -0.03358,4.11447c0.00038,1.31067 0.03748,2.83005 0.11126,4.55814c0.07379,1.7281 0.14222,3.26165 0.20529,4.60064c0.06307,1.339 -0.03288,2.81433 -0.28784,4.42604c-0.25496,1.6117 -0.88038,2.77964 -1.87626,3.50383c-0.99589,0.72419 -2.33595,1.33389 -4.02021,1.82913c-1.68426,0.49524 -3.21405,0.82058 -4.58942,0.97605c-1.37535,0.15547 -2.459,0.25816 -3.25096,0.3081c-0.79195,0.04993 -1.18802,0.07487 -1.18816,0.07479c-2.05476,0.11933 -3.81719,-1.44964 -3.93651,-3.50441c-0.11933,-2.05476 1.44964,-3.81719 3.50441,-3.93651c0,0 0.39624,-0.02108 1.18875,-0.06321c0.79249,-0.04215 1.73261,-0.09498 2.82036,-0.15851c1.08775,-0.06353 2.21965,-0.32053 3.39569,-0.77101c1.17604,-0.45048 1.79568,-1.34525 1.85889,-2.68431c0.06321,-1.33906 0.13164,-2.87261 0.20529,-4.60064c0.07365,-1.72803 0.11072,-3.24739 0.11126,-4.55814c0.00054,-1.31075 -0.01066,-2.68223 -0.03358,-4.11447c-0.02292,-1.43224 -0.07687,-2.97635 -0.16186,-4.63236c-0.08499,-1.65601 -0.15163,-3.19234 -0.19996,-4.60898c-0.04832,-1.41664 -0.07241,-2.125 -0.07225,-2.12508c0,-1.84558 1.49615,-3.34173 3.34173,-3.34173c1.84558,0 3.34173,1.49615 3.34173,3.34173z"></path><path d="M250.48227,186.41314c0,0 0.57907,0.91349 1.73721,2.74046c1.15815,1.82697 2.30583,3.59283 3.44304,5.29754c1.13721,1.70471 2.38262,3.34795 3.73621,4.9297c1.35359,1.58174 2.76563,3.22549 4.23615,4.93119c1.47053,1.70572 3.12557,3.54783 4.96512,5.52632c1.83957,1.97849 3.65779,3.90838 5.45465,5.78962c1.79688,1.88124 3.44127,3.54867 4.93316,5.00229c1.49191,1.45362 3.04139,2.93201 4.64846,4.43519c1.60707,1.50318 3.28318,3.01236 5.02835,4.52757c1.74516,1.51522 3.42521,2.84715 5.04015,3.99578c1.61494,1.14865 3.41722,2.43067 5.40683,3.84609c1.98961,1.41541 2.98434,2.12319 2.98419,2.12335c0.91429,0.64802 1.13015,1.91452 0.48212,2.82881c-0.64802,0.91429 -1.91452,1.13015 -2.82881,0.48212c0,0 -0.99732,-0.70415 -2.99196,-2.11245c-1.99462,-1.4083 -3.85415,-2.72174 -5.57854,-3.94033c-1.72439,-1.21857 -3.48306,-2.59559 -5.27601,-4.13101c-1.79293,-1.53544 -3.51031,-3.05509 -5.15211,-4.55895c-1.64181,-1.50387 -3.23744,-2.98893 -4.78694,-4.45521c-1.54949,-1.46628 -3.24412,-3.13063 -5.08392,-4.99303c-1.83979,-1.86241 -3.71694,-3.77961 -5.63146,-5.75163c-1.9145,-1.97202 -3.63625,-3.78221 -5.1652,-5.43057c-1.52895,-1.64838 -3.06956,-3.2989 -4.62183,-4.95158c-1.55227,-1.65269 -2.96539,-3.29904 -4.2394,-4.93907c-1.27399,-1.64002 -2.57081,-3.31703 -3.89043,-5.031c-1.31961,-1.71397 -1.97951,-2.57097 -1.97965,-2.57097c-0.98467,-1.41673 -0.6377,-3.36306 0.7759,-4.35224c1.41358,-0.98917 3.36101,-0.6484 4.35469,0.76203z"></path></g></g></g></svg><style>@media (prefers-color-scheme: light) { :root { filter: none; } }
@media (prefers-color-scheme: dark) { :root { filter: none; } }
</style></svg>